:SAMPLES-PER-SECOND 24
:FULLY-SPECIFIED
:DEGREES
235
root  -1.13581 39.5792 42.8064 -32.7751 23.3826 -38.1999
RightUpLeg  -61.0022 -29.5054 -0.970072
RightLeg  92.9869 0.844724 -6.10368
RightFoot  -10.9872 -0.0805368 2.27106
RightToes  -2.08645e-008 3.77894e-005 6.81332e-007
Spine  20.0678 -0.374054 -8.44138
Spine1  6.64388 -6.21876 19.4603
HEad  -15.2628 -3.9188 11.509
LeftShoulder1  6.81041 -12.7427 -35.8817
LeftArm  0.264901 -17.3193 -30.7234
LeftForeArm  83.7803 -79.9626 -71.7716
LeftHand  -0.677406 -3.89653 8.73003
RightShoulder  4.34778 6.96004 35.6397
RightArm  -13.8297 -13.8157 17.1394
RightForeArm  31.6356 3.34399 9.02149
RightHand  -0.33596 9.91174 -2.95039
LeftUpLeg  -10.631 4.11182 26.6362
LeftLeg  35.4461 -6.1279 -4.32098
LeftFoot  -3.66296 -0.340727 5.41783
LeftToes  1.24767e-006 1.47042e-008 1.32732e-009
236
root  -1.54085 39.9704 43.516 -39.9895 25.0919 -47.0746
RightUpLeg  -67.324 -33.6972 -4.51508
RightLeg  91.9528 0.779214 -6.81792
RightFoot  -10.3282 -0.0927864 2.57055
RightToes  -2.08645e-008 3.77894e-005 6.81332e-007
Spine  23.4884 -1.19724 -6.42884
Spine1  5.76 -7.61621 22.7725
HEad  -14.5074 -5.30203 13.3639
LeftShoulder1  6.47369 -12.4513 -34.5609
LeftArm  3.70898 -22.3856 -32.746
LeftForeArm  81.361 -79.8183 -69.5478
LeftHand  -0.622735 -4.47313 7.61233
RightShoulder  4.43274 7.02791 36.167
RightArm  -16.2047 -18.5149 16.2169
RightForeArm  31.2968 -1.80548 7.7396
RightHand  -0.0362589 9.86386 -0.681903
LeftUpLeg  -11.978 7.60597 33.8672
LeftLeg  36.2392 -4.58037 -3.24034
LeftFoot  -2.02101 -0.403126 5.09127
LeftToes  1.24767e-006 1.47042e-008 1.32732e-009
237
root  -1.88396 40.1919 44.289 -45.0082 24.1069 -52.9187
RightUpLeg  -72.7614 -35.3478 -8.72388
RightLeg  88.5071 0.362464 -6.91676
RightFoot  -9.57369 -0.109911 2.96721
RightToes  -2.08645e-008 3.77894e-005 6.81332e-007
Spine  24.8911 -1.04344 -5.06345
Spine1  5.88841 -7.80386 24.6996
HEad  -13.8226 -6.33512 15.2566
LeftShoulder1  6.2347 -12.202 -33.6941
LeftArm  6.44053 -26.1385 -33.8035
LeftForeArm  84.7577 -80.0151 -72.4886
LeftHand  -0.545955 -4.66012 6.59662
RightShoulder  4.52294 7.11794 36.6473
RightArm  -17.4781 -22.0618 15.2028
RightForeArm  33.0158 -5.03488 6.50894
RightHand  0.102373 10.2375 0.34479
LeftUpLeg  -11.9967 9.03657 39.5757
LeftLeg  35.8857 -0.994981 -0.413968
LeftFoot  -0.989872 -0.538237 6.00873
LeftToes  1.24767e-006 1.47042e-008 1.32732e-009
238
root  -2.15795 40.1402 44.9517 -48.7937 22.0629 -56.733
RightUpLeg  -76.2083 -35.499 -13.1199
RightLeg  81.8116 -0.623252 -8.43195
RightFoot  -9.5353 -0.0935963 1.8088
RightToes  -2.08645e-008 3.77894e-005 6.81332e-007
Spine  26.4208 -0.463712 -3.57819
Spine1  6.08381 -7.38384 25.8076
HEad  -13.974 -6.99826 16.9369
LeftShoulder1  6.13643 -12.0743 -33.3912
LeftArm  7.94467 -28.8372 -33.6414
LeftForeArm  93.4399 -80.3781 -80.2417
LeftHand  -0.518982 -4.68798 6.27062
RightShoulder  4.58515 7.18899 36.9377
RightArm  -19.0433 -23.0979 14.4587
RightForeArm  35.5851 -6.77256 5.42628
RightHand  0.162223 10.4409 0.77239
LeftUpLeg  -11.6037 3.77955 44.0407
LeftLeg  36.9397 3.31154 3.04344
LeftFoot  -1.14348 -0.47843 5.42768
LeftToes  1.24767e-006 1.47042e-008 1.32732e-009
239
root  -2.40857 39.9333 45.6483 -51.8456 19.7596 -59.1565
RightUpLeg  -77.4587 -34.9126 -16.4737
RightLeg  72.0209 -3.57284 -13.1749
RightFoot  -10.9655 -0.0769895 0.637659
RightToes  -2.08645e-008 3.77894e-005 6.81332e-007
Spine  28.1822 -0.0698992 -1.71393
Spine1  6.1683 -6.60248 25.4022
HEad  -14.8617 -7.05632 18.6481
LeftShoulder1  5.98661 -11.9166 -32.824
LeftArm  7.78879 -29.9157 -32.8964
LeftForeArm  104.969 -80.5089 -91.8214
LeftHand  -0.468269 -4.73596 5.66235
RightShoulder  4.64442 7.25461 37.2181
RightArm  -20.9483 -21.8317 14.2489
RightForeArm  36.6057 -6.47274 4.66853
RightHand  0.123133 9.9132 0.520217
LeftUpLeg  -11.3827 -2.07378 47.1919
LeftLeg  39.7847 8.82167 8.1802
LeftFoot  -1.27349 -0.425475 4.91501
LeftToes  1.24767e-006 1.47042e-008 1.32732e-009
240
root  -2.58112 39.7109 46.2435 -53.939 17.9613 -60.5709
RightUpLeg  -76.4915 -34.6286 -18.0506
RightLeg  57.436 -10.2951 -17.2225
RightFoot  -11.7578 -0.0824469 -0.794623
RightToes  -2.08645e-008 3.77894e-005 6.81332e-007
Spine  29.016 0.299365 -0.252993
Spine1  6.9532 -6.0284 25.1476
HEad  -16.3815 -7.07831 20.077
LeftShoulder1  6.07349 -12.0363 -33.0836
LeftArm  6.50571 -29.713 -31.4331
LeftForeArm  114.006 -80.3 -101.488
LeftHand  -0.440018 -4.56866 5.41921
RightShoulder  4.65305 7.27261 37.2258
RightArm  -21.8662 -18.9912 14.3183
RightForeArm  36.0143 -6.43098 4.35515
RightHand  0.14957 9.56778 0.75396
LeftUpLeg  -11.4627 -5.23721 49.1627
LeftLeg  42.9164 13.2296 13.2177
LeftFoot  -1.04234 -0.446321 5.01876
LeftToes  1.24767e-006 1.47042e-008 1.32732e-009
241
root  -2.59631 39.537 46.7453 -55.5884 17.704 -60.9687
RightUpLeg  -70.3758 -33.7837 -21.8226
RightLeg  36.3579 -17.9112 -13.9694
RightFoot  -11.5872 -0.0793456 -0.408954
RightToes  -2.08645e-008 3.77894e-005 6.81332e-007
Spine  29.0094 0.469345 -0.246156
Spine1  8.254 -5.84111 25.2202
HEad  -17.6588 -7.56889 21.3301
LeftShoulder1  6.14212 -12.1291 -33.289
LeftArm  5.02091 -28.4486 -30.5288
LeftForeArm  115.24 -80.2671 -102.613
LeftHand  -0.478355 -4.40624 5.95281
RightShoulder  4.66112 7.28682 37.2432
RightArm  -21.4753 -14.8277 14.775
RightForeArm  34.5647 -6.56753 4.92928
RightHand  0.0626657 9.8163 0.0708419
LeftUpLeg  -10.7966 -7.42067 49.8888
LeftLeg  44.7574 13.6397 14.4382
LeftFoot  -2.13333 -0.293534 3.7808
LeftToes  1.24767e-006 1.47042e-008 1.32732e-009
242
root  -2.49054 39.5488 47.4285 -57.5455 18.6743 -61.7813
RightUpLeg  -59.4396 -29.5765 -31.7083
RightLeg  18.4111 -22.186 -8.2375
RightFoot  -10.1408 -0.102955 2.82831
RightToes  -2.08645e-008 3.77894e-005 6.81332e-007
Spine  27.1506 0.329172 -1.43644
Spine1  10.0793 -5.89957 26.0276
HEad  -17.9253 -9.13217 22.2227
LeftShoulder1  6.24299 -12.2715 -33.5715
LeftArm  3.96302 -26.9388 -30.1922
LeftForeArm  102.734 -80.4768 -90.3662
LeftHand  -0.479629 -4.42166 5.95971
RightShoulder  4.67815 7.29467 37.3659
RightArm  -20.4121 -10.6805 15.5425
RightForeArm  31.4932 -6.61988 5.86043
RightHand  -0.0826857 9.5724 -1.04437
LeftUpLeg  -9.56536 -8.51249 50.7728
LeftLeg  44.4607 11.7833 12.5
LeftFoot  -4.03611 -0.117673 2.23088
LeftToes  1.24767e-006 1.47042e-008 1.32732e-009
243
root  -2.5215 39.5147 47.7703 -59.9182 20.4922 -63.598
RightUpLeg  -53.5851 -25.1035 -38.53
RightLeg  18.5332 -21.0294 -7.90735
RightFoot  -7.45616 -0.242289 5.57597
RightToes  -2.08645e-008 3.77894e-005 6.81332e-007
Spine  26.0797 0.35693 -2.26439
Spine1  11.2906 -6.38553 26.9904
HEad  -17.7416 -11.4551 23.2962
LeftShoulder1  6.25764 -12.2985 -33.5965
LeftArm  4.36913 -25.7409 -30.2514
LeftForeArm  79.7274 -79.6996 -68.0609
LeftHand  -0.471433 -4.53541 5.80349
RightShoulder  4.75424 7.34499 37.8489
RightArm  -19.7306 -8.2544 16.8705
RightForeArm  28.3138 -3.51849 6.65897
RightHand  -0.19568 9.31641 -1.93761
LeftUpLeg  -10.1183 -9.98223 50.8523
LeftLeg  44.3923 10.9856 11.6834
LeftFoot  -5.24503 -0.0562318 1.65365
LeftToes  1.24767e-006 1.47042e-008 1.32732e-009
244
root  -2.59912 39.4193 47.801 -61.4798 22.3134 -64.9731
RightUpLeg  -56.3201 -26.2197 -34.0597
RightLeg  30.922 -13.7476 -8.95746
RightFoot  -2.69196 -0.451295 5.71933
RightToes  -2.08645e-008 3.77894e-005 6.81332e-007
Spine  25.2725 0.83801 -1.93521
Spine1  11.8769 -6.257 26.7977
HEad  -18.4869 -13.993 23.9903
LeftShoulder1  6.34441 -12.3646 -33.975
LeftArm  5.93932 -24.3283 -29.7969
LeftForeArm  63.5367 -77.8741 -51.531
LeftHand  -0.532206 -4.80899 6.35285
RightShoulder  4.73276 7.32108 37.7513
RightArm  -19.4228 -7.52077 19.3266
RightForeArm  27.1885 0.156523 7.1356
RightHand  -0.249941 9.43668 -2.35056
LeftUpLeg  -11.1312 -11.4821 50.1236
LeftLeg  44.4909 10.2892 11.0329
LeftFoot  -6.5286 -0.0126263 1.23429
LeftToes  1.24767e-006 1.47042e-008 1.32732e-009
245
root  -2.60219 39.4337 47.7169 -61.9244 24.7362 -65.4916
RightUpLeg  -60.5576 -28.4055 -26.9654
RightLeg  44.4205 -9.38966 -10.0559
RightFoot  1.87632 -0.439952 3.89621
RightToes  -2.08645e-008 3.77894e-005 6.81332e-007
Spine  24.7353 1.40161 -1.3049
Spine1  11.123 -5.23058 25.3555
HEad  -20.22 -16.4563 23.9135
LeftShoulder1  6.40274 -12.3959 -34.2599
LeftArm  6.9989 -21.4648 -28.763
LeftForeArm  57.0599 -76.4416 -43.9149
LeftHand  -0.544912 -5.25118 6.2529
RightShoulder  4.69152 7.29109 37.4996
RightArm  -18.6409 -7.2024 21.7066
RightForeArm  29.3258 1.8672 7.4863
RightHand  -0.27779 9.68813 -2.53584
LeftUpLeg  -11.4239 -11.2582 48.6149
LeftLeg  42.9336 8.68612 8.95224
LeftFoot  -8.13722 0.0102188 1.40482
LeftToes  1.24767e-006 1.47042e-008 1.32732e-009
246
root  -2.58337 39.5735 47.5522 -62.064 28.1072 -66.3237
RightUpLeg  -62.8082 -29.6758 -21.1708
RightLeg  56.2889 -6.46765 -10.7511
RightFoot  2.40773 -0.239497 2.10821
RightToes  -2.08645e-008 3.77894e-005 6.81332e-007
Spine  24.4309 1.78194 -0.644399
Spine1  9.83325 -4.14481 23.6519
HEad  -23.1819 -19.0031 23.4905
LeftShoulder1  6.38474 -12.3455 -34.2745
LeftArm  6.92833 -18.2601 -27.7719
LeftForeArm  51.7127 -74.8292 -37.9887
LeftHand  -0.478639 -5.51301 5.40976
RightShoulder  4.65585 7.27535 37.2406
RightArm  -17.4818 -6.69824 23.2013
RightForeArm  32.5234 2.3406 7.34644
RightHand  -0.120421 10.1125 -1.30954
LeftUpLeg  -11.9689 -9.23393 46.5317
LeftLeg  39.8405 6.24888 5.95178
LeftFoot  -9.38982 0.0136122 2.53995
LeftToes  1.24767e-006 1.47042e-008 1.32732e-009
247
root  -2.58215 39.7257 47.5259 -62.244 31.6784 -67.4432
RightUpLeg  -63.566 -29.5971 -16.3403
RightLeg  67.2145 -2.97339 -8.41812
RightFoot  2.05011 -0.44624 3.9203
RightToes  -2.08645e-008 3.77894e-005 6.81332e-007
Spine  24.0272 2.19347 0.276213
Spine1  8.79373 -2.78235 21.7293
HEad  -27.1804 -22.0617 23.2795
LeftShoulder1  6.42145 -12.383 -34.4084
LeftArm  6.13559 -15.8373 -26.8752
LeftForeArm  45.8754 -72.5209 -31.9954
LeftHand  -0.491454 -5.41887 5.59122
RightShoulder  4.59111 7.2366 36.8066
RightArm  -17.1656 -6.35206 23.7861
RightForeArm  33.6619 2.17528 7.13133
RightHand  -0.103596 10.6551 -1.16414
LeftUpLeg  -13.2654 -6.4675 44.3791
LeftLeg  37.6526 3.17673 2.99943
LeftFoot  -9.69857 -0.00145569 4.17751
LeftToes  1.24767e-006 1.47042e-008 1.32732e-009
248
root  -2.5319 39.7149 47.5596 -63.0137 35.8129 -68.8526
RightUpLeg  -63.3212 -29.8013 -12.0412
RightLeg  78.0946 -0.591038 -4.95436
RightFoot  2.41594 -0.674655 5.7243
RightToes  -2.08645e-008 3.77894e-005 6.81332e-007
Spine  24.0956 2.1775 1.41461
Spine1  7.77102 -1.70636 19.0664
HEad  -31.061 -25.5914 23.1527
LeftShoulder1  6.48695 -12.5205 -34.4689
LeftArm  4.42575 -13.5655 -26.1242
LeftForeArm  42.4069 -70.6507 -28.3184
LeftHand  -0.570911 -5.33175 6.48956
RightShoulder  4.4638 7.14882 35.9841
RightArm  -17.4342 -6.23836 23.4172
RightForeArm  33.178 2.11763 7.21889
RightHand  -0.115332 10.7646 -1.24464
LeftUpLeg  -15.6726 -4.53368 41.1424
LeftLeg  37.9864 1.36009 1.50675
LeftFoot  -9.32945 -0.0559575 6.37741
LeftToes  1.24767e-006 1.47042e-008 1.32732e-009
